<?xml version="1.0" encoding="UTF-8" standalone="no"?>
<svg
   xmlns:dc="http://purl.org/dc/elements/1.1/"
   xmlns:cc="http://creativecommons.org/ns#"
   xmlns:rdf="http://www.w3.org/1999/02/22-rdf-syntax-ns#"
   xmlns:svg="http://www.w3.org/2000/svg"
   xmlns="http://www.w3.org/2000/svg"
   xmlns:xlink="http://www.w3.org/1999/xlink"
   xmlns:sodipodi="http://sodipodi.sourceforge.net/DTD/sodipodi-0.dtd"
   xmlns:inkscape="http://www.inkscape.org/namespaces/inkscape"
   id="generated_logo_1"
   viewBox="0 0 363.84961 100"
   version="1.1"
   sodipodi:docname="logo_transparent.svg"
   width="363.84961"
   height="100">
  <metadata
     id="metadata50">
    <rdf:RDF>
      <cc:Work
         rdf:about="">
        <dc:format>image/svg+xml</dc:format>
        <dc:type
           rdf:resource="http://purl.org/dc/dcmitype/StillImage" />
      </cc:Work>
    </rdf:RDF>
  </metadata>
  <defs
     id="defs48" />
  <sodipodi:namedview
     pagecolor="#ffffff"
     bordercolor="#666666"
     borderopacity="1"
     objecttolerance="10"
     gridtolerance="10"
     guidetolerance="10"
     inkscape:pageopacity="0"
     inkscape:pageshadow="2"
     inkscape:window-width="640"
     inkscape:window-height="480"
     id="namedview46" />
  <style
     type="text/css"
     class="styleimportlogofontmain"
     id="style2">@import url(&quot;https://fonts.googleapis.com/css2?family=Krona One:wght@400&quot;);#generated_logo_1 .maintypo { font-family: Krona One; font-weight: 400; }</style>
  <style
     type="text/css"
     class="styleimportlogofontsub"
     id="style4">@import url(&quot;https://fonts.googleapis.com/css2?family=PT Sans Narrow:wght@400;700&quot;);#generated_logo_1 .subtypo { font-family: PT Sans Narrow; font-weight: 400; }</style>
  <style
     type="text/css"
     class="styleimportlogopos"
     id="style6" />
  <g
     id="logo-elements"
     transform="translate(50,50)"
     transform-box="stroke-box">
    <g
       id="iconcontainer"
       transform-origin="center"
       transform-box="fill-box">
      <g
         class="iconBGGrpM"
         id="g10">
        <g
           class="iconBGGrp"
           transform="matrix(0.1,0,0,0.1,-50,-50)"
           id="g8" />
      </g>
      <g
         class="iconGrpM"
         id="g32">
        <g
           class="iconGrp"
           transform="matrix(0.1,0,0,0.1,-50,-50)"
           id="g30">
          <g
             class="lg_icon"
             id="lg_icon_36"
             stroke="none"
             stroke-width="1"
             fill="none"
             fill-rule="evenodd">
            <g
               id="0036">
              <defs
                 id="defs13">
                <polygon
                   id="path-1"
                   points="0.0004,0.0004 700,0.0004 700,700 0.0004,700 " />
              </defs>
              <path
                 id="FRAME"
                 style="fill:none"
                 d="M 0,0 V 1000 H 1000 V 0 Z" />
              <g
                 id="Icon"
                 transform="translate(150,150)">
                <path
                   d="m 505.5635,505.5635 c -41.553,41.553 -96.8,64.437 -155.563,64.437 -58.764,0 -114.011,-22.884 -155.564,-64.437 -41.553,-41.552 -64.436,-96.799 -64.436,-155.563 0,-58.765 22.883,-114.012 64.436,-155.564 41.553,-41.553 96.8,-64.436 155.564,-64.436 58.763,0 114.01,22.883 155.563,64.436 41.553,41.552 64.437,96.799 64.437,155.564 0,58.764 -22.884,114.011 -64.437,155.563 m 21.213,-332.34 c -47.219,-47.219 -109.999,-73.223 -176.776,-73.223 -66.778,0 -129.558,26.004 -176.777,73.223 -47.219,47.218 -73.223,109.999 -73.223,176.777 0,66.777 26.004,129.558 73.223,176.776 47.219,47.219 109.999,73.224 176.777,73.224 66.777,0 129.557,-26.005 176.776,-73.224 47.219,-47.218 73.224,-109.999 73.224,-176.776 0,-66.778 -26.005,-129.559 -73.224,-176.777"
                   id="Fill-1"
                   fill="#001587" />
                <g
                   id="Group-5">
                  <mask
                     id="mask-2"
                     fill="#ffffff">
                    <use
                       xlink:href="#path-1"
                       id="use17"
                       x="0"
                       y="0"
                       width="100%"
                       height="100%" />
                  </mask>
                  <g
                     id="Clip-4" />
                  <path
                     d="m 576.2744,576.2744 c -60.44,60.44 -140.8,93.726 -226.274,93.726 -85.475,0 -165.834,-33.286 -226.275,-93.726 -60.439,-60.44 -93.725,-140.799 -93.725,-226.274 0,-85.476 33.286,-165.834 93.725,-226.275 60.441,-60.44 140.8,-93.725 226.275,-93.725 85.474,0 165.834,33.285 226.274,93.725 60.439,60.441 93.726,140.799 93.726,226.275 0,85.475 -33.287,165.834 -93.726,226.274 M 350.0004,4e-4 c -193.3,0 -350,156.7 -350,350 0,193.299 156.7,350 350,350 193.299,0 350,-156.701 350,-350 0,-193.3 -156.701,-350 -350,-350"
                     id="Fill-3"
                     fill="#001587" />
                </g>
                <path
                   d="m 350,520 c -93.738,0 -170,-76.262 -170,-170 0,-93.738 76.262,-170 170,-170 93.738,0 170,76.262 170,170 0,93.738 -76.262,170 -170,170 m 0,-370 c -110.28,0 -200,89.72 -200,200 0,110.28 89.72,200 200,200 110.28,0 200,-89.72 200,-200 0,-110.28 -89.72,-200 -200,-200"
                   id="Fill-6"
                   fill="#001587" />
                <path
                   d="m 540.9189,540.9189 c -50.996,50.996 -118.8,79.081 -190.919,79.081 -72.119,0 -139.923,-28.085 -190.919,-79.081 -50.996,-50.996 -79.081,-118.799 -79.081,-190.919 0,-72.12 28.085,-139.923 79.081,-190.919 50.996,-50.996 118.8,-79.081 190.919,-79.081 72.119,0 139.923,28.085 190.919,79.081 50.996,50.996 79.081,118.799 79.081,190.919 0,72.12 -28.085,139.923 -79.081,190.919 m 21.213,-403.051 c -56.662,-56.662 -131.999,-87.868 -212.132,-87.868 -80.133,0 -155.47,31.206 -212.132,87.868 -56.663,56.662 -87.868,131.999 -87.868,212.132 0,80.133 31.205,155.47 87.868,212.132 56.662,56.662 131.999,87.868 212.132,87.868 80.133,0 155.47,-31.206 212.132,-87.868 56.663,-56.662 87.868,-131.999 87.868,-212.132 0,-80.133 -31.205,-155.47 -87.868,-212.132"
                   id="Fill-8"
                   fill="#001587" />
                <path
                   d="m 350,450 c -55.229,0 -100,-44.771 -100,-100 0,-55.229 44.771,-100 100,-100 55.229,0 100,44.771 100,100 0,55.229 -44.771,100 -100,100 m 0,-250 c -82.71,0 -150,67.29 -150,150 0,82.71 67.29,150 150,150 82.71,0 150,-67.29 150,-150 0,-82.71 -67.29,-150 -150,-150"
                   id="Fill-10"
                   fill="#001587" />
                <path
                   d="m 350,320 c -14.498,0 -26.594,10.283 -29.391,23.954 -0.399,1.953 -0.609,3.975 -0.609,6.046 0,2.071 0.21,4.093 0.609,6.046 C 323.406,369.717 335.502,380 350,380 c 14.498,0 26.594,-10.283 29.391,-23.954 0.399,-1.953 0.609,-3.975 0.609,-6.046 0,-2.071 -0.21,-4.093 -0.609,-6.046 C 376.594,330.283 364.498,320 350,320"
                   id="Fill-12"
                   fill="#001587" />
              </g>
            </g>
          </g>
        </g>
      </g>
    </g>
    <g
       id="textlines">
      <g
         id="einsg">
        <g
           aria-label="App Music"
           id="eins"
           style="text-rendering:geometricPrecision">
          <path
             d="M 87.902832,-31.711426 H 93.64502 L 106.56494,-5 h -5.69092 L 98.737793,-9.4946289 H 83.134766 L 81.066895,-5 h -5.708008 z m 8.69873,17.756348 -5.776367,-12.133789 -5.622558,12.133789 z"
             style="font-weight:400;font-size:35px;font-family:'Krona One';letter-spacing:1;fill:#001587"
             id="path53" />
          <path
             d="m 116.00732,3.2373047 h -5.05859 V -25.166016 h 5.05859 v 1.896973 q 0.66651,-0.461426 1.57227,-0.871582 0.90576,-0.410156 1.94824,-0.717773 1.04248,-0.307618 2.15332,-0.478516 1.11084,-0.187988 2.22168,-0.187988 2.56348,0 4.69971,0.751953 2.15332,0.751953 3.69141,2.11914 1.53808,1.367188 2.39257,3.28125 0.87159,1.896973 0.87159,4.204102 0,2.409668 -0.90577,4.35791 -0.90576,1.9311525 -2.5122,3.3154298 -1.58936,1.3671875 -3.79395,2.1191406 -2.1875,0.7348633 -4.75098,0.7348633 -1.09375,0 -2.17041,-0.1367187 -1.05957,-0.1367188 -2.05078,-0.3759766 -0.97412,-0.2392578 -1.8457,-0.5639648 -0.85449,-0.3417969 -1.521,-0.7348633 z m 0,-14.5776367 q 0.76905,0.615234 1.62354,1.04248 0.85449,0.4272465 1.74316,0.700684 0.88868,0.2734375 1.79444,0.4101563 0.90576,0.1196289 1.76025,0.1196289 1.74317,0 3.09326,-0.4614258 1.36719,-0.4785154 2.29004,-1.2988284 0.93994,-0.820312 1.43555,-1.931152 0.4956,-1.11084 0.4956,-2.409668 0,-1.213379 -0.4956,-2.290039 -0.47852,-1.07666 -1.40137,-1.879883 -0.90576,-0.820312 -2.20459,-1.281738 -1.28174,-0.478516 -2.88818,-0.478516 -1.02539,0 -2.05078,0.205078 -1.02539,0.187989 -1.98243,0.546875 -0.93994,0.358887 -1.77734,0.871582 -0.82031,0.512696 -1.43555,1.14502 z"
             style="font-weight:400;font-size:35px;font-family:'Krona One';letter-spacing:1;fill:#001587"
             id="path55" />
          <path
             d="m 146.26514,3.2373047 h -5.0586 V -25.166016 h 5.0586 v 1.896973 q 0.6665,-0.461426 1.57226,-0.871582 0.90576,-0.410156 1.94824,-0.717773 1.04248,-0.307618 2.15332,-0.478516 1.11084,-0.187988 2.22168,-0.187988 2.56348,0 4.69971,0.751953 2.15332,0.751953 3.69141,2.11914 1.53808,1.367188 2.39258,3.28125 0.87158,1.896973 0.87158,4.204102 0,2.409668 -0.90576,4.35791 -0.90577,1.9311525 -2.51221,3.3154298 -1.58936,1.3671875 -3.79395,2.1191406 -2.1875,0.7348633 -4.75097,0.7348633 -1.09375,0 -2.17041,-0.1367187 -1.05957,-0.1367188 -2.05078,-0.3759766 -0.97413,-0.2392578 -1.84571,-0.5639648 -0.85449,-0.3417969 -1.52099,-0.7348633 z m 0,-14.5776367 q 0.76904,0.615234 1.62353,1.04248 0.85449,0.4272465 1.74317,0.700684 0.88867,0.2734375 1.79443,0.4101563 0.90576,0.1196289 1.76025,0.1196289 1.74317,0 3.09327,-0.4614258 1.36718,-0.4785154 2.29003,-1.2988284 0.93995,-0.820312 1.43555,-1.931152 0.49561,-1.11084 0.49561,-2.409668 0,-1.213379 -0.49561,-2.290039 -0.47851,-1.07666 -1.40137,-1.879883 -0.90576,-0.820312 -2.20459,-1.281738 -1.28173,-0.478516 -2.88818,-0.478516 -1.02539,0 -2.05078,0.205078 -1.02539,0.187989 -1.98242,0.546875 -0.93994,0.358887 -1.77735,0.871582 -0.82031,0.512696 -1.43554,1.14502 z"
             style="font-weight:400;font-size:35px;font-family:'Krona One';letter-spacing:1;fill:#001587"
             id="path57" />
          <path
             d="m 184.87158,-31.711426 h 5.41748 l 9.70703,9.741211 9.70703,-9.741211 h 5.41749 V -5 h -5.41749 v -19.208984 l -9.70703,9.348144 -9.70703,-9.348144 V -5 h -5.41748 z"
             style="font-weight:400;font-size:35px;font-family:'Krona One';letter-spacing:1;fill:#001587"
             id="path59" />
          <path
             d="m 223.09326,-25.183105 h 5.04151 v 9.84375 q 0,1.401367 0.30761,2.563476 0.30762,1.14502 1.04248,1.965332 0.75196,0.8203126 1.98243,1.2817384 1.24755,0.4443359 3.09326,0.4443359 0.87158,0 1.76025,-0.1879882 0.90576,-0.1879883 1.72607,-0.5126954 0.82032,-0.3417967 1.521,-0.8032227 0.71777,-0.461426 1.23047,-1.008301 v -13.586425 h 5.05859 V -5 h -5.05859 v -1.7260742 q -1.86279,1.1108398 -3.74268,1.5893555 -1.87988,0.4785156 -3.57177,0.4785156 -2.76856,0 -4.75098,-0.6665039 -1.96533,-0.6665039 -3.22998,-1.9311524 -1.24756,-1.2817383 -1.82861,-3.1274416 -0.58106,-1.862793 -0.58106,-4.238281 z"
             style="font-weight:400;font-size:35px;font-family:'Krona One';letter-spacing:1;fill:#001587"
             id="path61" />
          <path
             d="m 254.08594,-11.186523 q 2.05078,1.2304683 4.51172,1.811523 2.46093,0.5810547 5.0415,0.5810547 1.74316,0 2.90527,-0.2392578 1.16211,-0.2392578 1.8628,-0.6152344 0.70068,-0.3759765 0.99121,-0.8544925 0.29052,-0.478515 0.29052,-0.974121 0,-0.717773 -0.63232,-1.230469 -0.61523,-0.512695 -2.05078,-0.512695 -0.6665,0 -1.43555,0.08545 -0.76904,0.08545 -1.62353,0.187989 -0.83741,0.08545 -1.76026,0.170898 -0.90576,0.08545 -1.8457,0.08545 -2.05078,0 -3.50342,-0.444336 -1.43554,-0.444336 -2.34131,-1.213379 -0.90576,-0.769043 -1.31591,-1.811523 -0.41016,-1.05957 -0.41016,-2.272949 0,-1.538086 0.71777,-2.836914 0.71778,-1.298828 2.05078,-2.23877 1.33301,-0.957031 3.21289,-1.486816 1.89698,-0.529785 4.2212,-0.529785 1.21338,0 2.52929,0.153808 1.33301,0.136719 2.61475,0.375977 1.28174,0.239258 2.46094,0.563965 1.1792,0.307617 2.08496,0.666504 l -1.58936,3.930664 q -1.93115,-0.717774 -3.8623,-1.12793 -1.91407,-0.427246 -3.94776,-0.427246 -1.41845,0 -2.40966,0.222168 -0.97413,0.205078 -1.58936,0.563965 -0.61523,0.341797 -0.90576,0.803222 -0.27344,0.444336 -0.27344,0.939942 0,0.358886 0.13672,0.649414 0.15381,0.290527 0.47852,0.512695 0.34179,0.205078 0.87158,0.324707 0.54687,0.102539 1.33301,0.102539 0.71777,0 1.52099,-0.08545 0.80322,-0.08545 1.67481,-0.170898 0.87158,-0.10254 1.79443,-0.187989 0.93994,-0.08545 1.91406,-0.08545 1.81153,0 3.16162,0.427246 1.36719,0.427246 2.25586,1.196289 0.88867,0.769043 1.33301,1.811524 0.44434,1.04248 0.44434,2.272949 0,1.589355 -0.73487,2.9565428 -0.73486,1.3671875 -2.1875,2.3754883 -1.45263,0.9912109 -3.62304,1.5551758 -2.15332,0.5639648 -4.99024,0.5639648 -1.74316,0 -3.3667,-0.2221679 -1.62353,-0.2050782 -3.09326,-0.5639649 -1.46973,-0.3759766 -2.76855,-0.871582 -1.28174,-0.4956055 -2.34131,-1.0595703 z"
             style="font-weight:400;font-size:35px;font-family:'Krona One';letter-spacing:1;fill:#001587"
             id="path63" />
          <path
             d="m 283.19873,-27.91748 q -0.75195,0 -1.36719,-0.205079 -0.59814,-0.222168 -1.02539,-0.581054 -0.42724,-0.375977 -0.6665,-0.854492 -0.22217,-0.495606 -0.22217,-1.042481 0,-0.563965 0.22217,-1.04248 0.23926,-0.495606 0.6665,-0.854493 0.42725,-0.358886 1.02539,-0.563964 0.61524,-0.222168 1.36719,-0.222168 0.76904,0 1.36719,0.222168 0.61523,0.205078 1.04248,0.563964 0.42724,0.358887 0.64941,0.854493 0.23926,0.478515 0.23926,1.04248 0,0.546875 -0.23926,1.042481 -0.22217,0.478515 -0.64941,0.854492 -0.42725,0.358886 -1.04248,0.581054 -0.59815,0.205079 -1.36719,0.205079 z m -2.5293,2.751464 h 5.0586 V -5 h -5.0586 z"
             style="font-weight:400;font-size:35px;font-family:'Krona One';letter-spacing:1;fill:#001587"
             id="path65" />
          <path
             d="m 292.00879,-15.031738 q 0,-2.22168 0.80322,-4.135742 0.82031,-1.931153 2.37549,-3.33252 1.57227,-1.418457 3.82812,-2.22168 2.27295,-0.803222 5.17823,-0.803222 1.26465,0 2.54638,0.153808 1.28174,0.153809 2.46094,0.444336 1.19629,0.273438 2.23877,0.666504 1.04248,0.375977 1.81152,0.837402 l -2.3413,3.811036 q -1.65772,-0.769043 -3.14454,-1.12793 -1.46972,-0.358887 -2.99072,-0.358887 -1.74316,0 -3.12744,0.461426 -1.38428,0.444336 -2.3584,1.264648 -0.95703,0.803223 -1.46972,1.914063 -0.49561,1.09375 -0.49561,2.392578 0,1.298828 0.52979,2.409668 0.54687,1.09375 1.52099,1.896973 0.99121,0.7861325 2.37549,1.2475582 1.40137,0.444336 3.11035,0.444336 1.87988,0 3.5376,-0.5297852 1.6748,-0.529785 3.11035,-1.418457 l 2.34131,3.8110352 q -0.90576,0.546875 -1.96533,1.0253906 -1.05957,0.4614258 -2.27295,0.8032226 -1.19629,0.3417969 -2.5293,0.5297852 -1.31592,0.2050781 -2.73437,0.2050781 -2.88819,0 -5.17823,-0.7861328 -2.29004,-0.7861328 -3.87939,-2.1704101 -1.58936,-1.4013672 -2.44385,-3.2983398 -0.8374,-1.896973 -0.8374,-4.135742 z"
             style="font-weight:400;font-size:35px;font-family:'Krona One';letter-spacing:1;fill:#001587"
             id="path67" />
        </g>
      </g>
      <g
         id="zweig"
         transform="translate(0,5)">
        <g
           id="zwei"
           style="dominant-baseline:text-before-edge;text-rendering:geometricPrecision" />
      </g>
    </g>
  </g>
</svg>
