<?xml version="1.0" encoding="UTF-8" standalone="no"?>
<svg
   xmlns:dc="http://purl.org/dc/elements/1.1/"
   xmlns:cc="http://creativecommons.org/ns#"
   xmlns:rdf="http://www.w3.org/1999/02/22-rdf-syntax-ns#"
   xmlns:svg="http://www.w3.org/2000/svg"
   xmlns="http://www.w3.org/2000/svg"
   xmlns:xlink="http://www.w3.org/1999/xlink"
   xmlns:sodipodi="http://sodipodi.sourceforge.net/DTD/sodipodi-0.dtd"
   xmlns:inkscape="http://www.inkscape.org/namespaces/inkscape"
   id="generated_logo_1"
   viewBox="0 0 410.51242 200"
   version="1.1"
   sodipodi:docname="logo_transparent.svg"
   width="410.51242"
   height="200">
  <metadata
     id="metadata55">
    <rdf:RDF>
      <cc:Work
         rdf:about="">
        <dc:format>image/svg+xml</dc:format>
        <dc:type
           rdf:resource="http://purl.org/dc/dcmitype/StillImage" />
      </cc:Work>
    </rdf:RDF>
  </metadata>
  <defs
     id="defs53" />
  <sodipodi:namedview
     pagecolor="#ffffff"
     bordercolor="#666666"
     borderopacity="1"
     objecttolerance="10"
     gridtolerance="10"
     guidetolerance="10"
     inkscape:pageopacity="0"
     inkscape:pageshadow="2"
     inkscape:window-width="640"
     inkscape:window-height="480"
     id="namedview51" />
  <style
     type="text/css"
     class="styleimportlogofontmain"
     id="style2">@import url(&quot;https://fonts.googleapis.com/css2?family=Suez One:wght@400&quot;);#generated_logo_1 .maintypo { font-family: Suez One; font-weight: 400; }</style>
  <style
     type="text/css"
     class="styleimportlogofontsub"
     id="style4">@import url(&quot;https://fonts.googleapis.com/css2?family=Roboto:wght@300;400;500;700;900&quot;);#generated_logo_1 .subtypo { font-family: Roboto; font-weight: 400; }</style>
  <style
     type="text/css"
     class="styleimportlogopos"
     id="style6" />
  <g
     id="logo-elements"
     transform="translate(100,100)"
     transform-box="stroke-box">
    <g
       id="iconcontainer"
       transform-origin="center"
       transform-box="fill-box">
      <g
         class="iconBGGrpM"
         id="g10">
        <g
           class="iconBGGrp"
           transform="matrix(0.1,0,0,0.1,-50,-50)"
           id="g8" />
      </g>
      <g
         class="iconGrpM"
         transform="scale(2)"
         id="g37">
        <g
           class="iconGrp"
           transform="matrix(0.1,0,0,0.1,-50,-50)"
           id="g35">
          <g
             class="lg_icon"
             id="lg_icon_44"
             stroke="none"
             stroke-width="1"
             fill="none"
             fill-rule="evenodd">
            <g
               id="0044">
              <defs
                 id="defs14">
                <polygon
                   id="path-1"
                   points="0.1251,0.8608 432.8244,0.8608 432.8244,297 0.1251,297 " />
                <polygon
                   id="path-3"
                   points="0,0.558 120,0.558 120,120.5579 0,120.5579 " />
              </defs>
              <path
                 id="FRAME"
                 style="fill:none"
                 d="M 0,0 V 1000 H 1000 V 0 Z" />
              <g
                 id="Icon"
                 transform="translate(89.0003,185.442)">
                <g
                   id="Group-3"
                   transform="translate(271.9997,333)">
                  <mask
                     id="mask-2"
                     fill="#ffffff">
                    <use
                       xlink:href="#path-1"
                       id="use17"
                       x="0"
                       y="0"
                       width="100%"
                       height="100%" />
                  </mask>
                  <g
                     id="Clip-2" />
                  <path
                     d="m 226.7271,141.1048 c -79.98,44.797 -158.256,79.229 -226.602,101.413 82.911,62.502 198.209,73.998 294.608,20.005 96.399,-53.993 146.828,-158.314 136.846,-261.662 -54.62,46.689 -124.872,95.447 -204.852,140.244"
                     id="Fill-1"
                     fill="#cccccc" />
                </g>
                <path
                   id="Fill-4"
                   style="fill:#cccccc"
                   d="m 89.987,270.5579 19.089,-70.898 70.898,-19.089 -70.898,-19.09 -19.089,-70.898 -19.089,70.898 -70.898,19.09 70.898,19.089 z" />
                <path
                   d="m 822.4338,157.0269 c -0.005,-0.173 -0.009,-0.347 -0.018,-0.519 -0.017,-0.341 -0.043,-0.679 -0.074,-1.016 -0.012,-0.137 -0.021,-0.275 -0.035,-0.412 -0.051,-0.469 -0.114,-0.934 -0.191,-1.394 -0.01,-0.057 -0.024,-0.114 -0.035,-0.171 -0.07,-0.4 -0.151,-0.796 -0.243,-1.188 -0.035,-0.151 -0.076,-0.3 -0.114,-0.449 -0.077,-0.299 -0.158,-0.596 -0.247,-0.891 -0.049,-0.164 -0.102,-0.327 -0.155,-0.49 -0.093,-0.28 -0.19,-0.559 -0.294,-0.836 -0.06,-0.159 -0.119,-0.318 -0.182,-0.476 -0.118,-0.291 -0.244,-0.579 -0.373,-0.865 -0.061,-0.134 -0.119,-0.27 -0.182,-0.402 -0.199,-0.415 -0.408,-0.827 -0.635,-1.231 -12.506,-22.328 -86.103,-10.439 -188.426,27.965 -82.952,-88.068 -218.045,-112.06 -328.379,-50.262 -3.464,1.94 -6.868,3.946 -10.213,6.014 l 18.565,68.95 78.797,21.217 -78.797,21.216 -21.216,78.796 -21.216,-78.796 -67.116,-18.071 c -35.94,61.643 -46.71,136.301 -27.491,206.939 -86.201,67.189 -134.787,123.733 -122.281,146.061 0.227,0.405 0.468,0.799 0.718,1.186 0.08,0.122 0.166,0.241 0.248,0.363 0.176,0.26 0.356,0.518 0.543,0.77 0.102,0.137 0.207,0.272 0.312,0.406 0.181,0.233 0.367,0.461 0.558,0.686 0.111,0.131 0.222,0.261 0.337,0.389 0.205,0.23 0.417,0.455 0.632,0.676 0.107,0.111 0.211,0.223 0.321,0.331 0.288,0.285 0.586,0.562 0.891,0.833 0.042,0.037 0.081,0.077 0.123,0.113 0.352,0.307 0.717,0.604 1.091,0.893 0.107,0.083 0.22,0.161 0.329,0.243 0.272,0.203 0.547,0.402 0.83,0.596 0.142,0.097 0.287,0.191 0.431,0.285 0.266,0.173 0.535,0.343 0.809,0.509 0.153,0.092 0.307,0.184 0.463,0.273 0.287,0.166 0.581,0.327 0.877,0.484 0.147,0.078 0.293,0.158 0.442,0.234 0.368,0.187 0.746,0.367 1.129,0.543 0.083,0.038 0.162,0.079 0.246,0.116 0.474,0.213 0.96,0.415 1.455,0.61 0.116,0.045 0.235,0.087 0.351,0.131 0.383,0.145 0.77,0.287 1.165,0.422 0.172,0.059 0.347,0.115 0.521,0.171 0.354,0.116 0.711,0.228 1.075,0.335 0.187,0.056 0.376,0.11 0.566,0.164 0.373,0.104 0.751,0.204 1.133,0.3 0.18,0.046 0.358,0.092 0.54,0.136 0.453,0.108 0.913,0.209 1.378,0.307 0.116,0.024 0.229,0.051 0.346,0.074 0.596,0.121 1.203,0.233 1.821,0.335 0.084,0.014 0.171,0.026 0.256,0.04 0.525,0.085 1.057,0.164 1.598,0.236 0.189,0.026 0.382,0.048 0.574,0.072 0.449,0.056 0.903,0.109 1.363,0.157 0.214,0.022 0.429,0.043 0.645,0.063 0.46,0.043 0.926,0.082 1.396,0.117 0.207,0.016 0.414,0.032 0.623,0.046 0.54,0.036 1.088,0.066 1.641,0.091 0.139,0.006 0.275,0.015 0.415,0.021 1.416,0.058 2.874,0.081 4.372,0.0733 0.184,0 0.372,-0.007 0.557,-0.009 0.563,-0.006 1.13,-0.017 1.704,-0.033 0.228,-0.006 0.458,-0.014 0.688,-0.022 0.556,-0.019 1.117,-0.042 1.684,-0.069 0.223,-0.011 0.446,-0.021 0.672,-0.034 0.629,-0.033 1.266,-0.073 1.908,-0.117 0.159,-0.012 0.316,-0.021 0.477,-0.032 1.642,-0.12 3.325,-0.272 5.047,-0.458 0.159,-0.017 0.32,-0.036 0.479,-0.053 0.695,-0.077 1.396,-0.159 2.104,-0.246 0.223,-0.028 0.448,-0.057 0.673,-0.086 0.666,-0.085 1.337,-0.174 2.015,-0.268 0.227,-0.032 0.453,-0.063 0.681,-0.096 0.734,-0.105 1.475,-0.215 2.221,-0.331 0.16,-0.024 0.317,-0.048 0.477,-0.072 1.869,-0.294 3.777,-0.62 5.725,-0.979 0.099,-0.018 0.2,-0.038 0.299,-0.056 0.853,-0.158 1.714,-0.323 2.581,-0.494 0.208,-0.041 0.418,-0.083 0.628,-0.125 0.783,-0.156 1.572,-0.317 2.367,-0.483 0.22,-0.046 0.44,-0.091 0.661,-0.138 0.834,-0.176 1.674,-0.358 2.52,-0.545 0.166,-0.036 0.33,-0.072 0.496,-0.109 3.101,-0.69 6.286,-1.451 9.553,-2.282 0.168,-0.043 0.338,-0.087 0.506,-0.13 0.914,-0.234 1.835,-0.473 2.762,-0.718 0.207,-0.054 0.414,-0.109 0.621,-0.164 0.948,-0.252 1.903,-0.51 2.864,-0.773 0.148,-0.04 0.294,-0.08 0.443,-0.121 3.412,-0.938 6.905,-1.945 10.476,-3.02 0.12,-0.036 0.242,-0.073 0.362,-0.11 1.055,-0.318 2.118,-0.643 3.188,-0.974 0.177,-0.054 0.355,-0.11 0.533,-0.165 1.062,-0.329 2.131,-0.665 3.206,-1.006 0.136,-0.042 0.27,-0.085 0.406,-0.128 3.716,-1.181 7.509,-2.429 11.379,-3.745 0.029,-0.009 0.06,-0.02 0.089,-0.03 1.228,-0.417 2.465,-0.842 3.708,-1.273 0.138,-0.048 0.275,-0.096 0.413,-0.143 1.189,-0.413 2.384,-0.832 3.586,-1.257 0.105,-0.037 0.21,-0.073 0.315,-0.111 5.297,-1.874 10.724,-3.862 16.276,-5.963 0.1,-0.038 0.201,-0.076 0.302,-0.114 1.308,-0.495 2.623,-0.997 3.945,-1.505 0.077,-0.029 0.153,-0.059 0.23,-0.088 5.66,-2.175 11.443,-4.462 17.346,-6.856 0.034,-0.015 0.069,-0.029 0.104,-0.042 1.433,-0.582 2.875,-1.171 4.322,-1.766 0.061,-0.024 0.121,-0.049 0.181,-0.074 5.984,-2.458 12.084,-5.023 18.296,-7.691 67.605,-29.036 148.363,-70.258 233.956,-118.199 85.607,-47.948 162.955,-95.283 223.035,-137.765 5.498,-3.888 10.852,-7.735 16.054,-11.539 0.078,-0.057 0.156,-0.114 0.234,-0.171 1.239,-0.906 2.47,-1.811 3.692,-2.712 0.046,-0.034 0.093,-0.068 0.14,-0.102 5.112,-3.774 10.072,-7.502 14.873,-11.184 0.077,-0.059 0.155,-0.118 0.232,-0.178 1.115,-0.856 2.222,-1.709 3.32,-2.559 0.086,-0.067 0.172,-0.134 0.258,-0.2 4.684,-3.632 9.209,-7.215 13.568,-10.748 0.103,-0.083 0.206,-0.167 0.309,-0.251 0.977,-0.792 1.945,-1.582 2.905,-2.369 0.118,-0.097 0.235,-0.193 0.353,-0.289 1.009,-0.829 2.01,-1.656 3.001,-2.48 0.031,-0.025 0.063,-0.052 0.094,-0.077 3.14,-2.611 6.183,-5.191 9.13,-7.74 0.11,-0.095 0.218,-0.19 0.328,-0.285 0.846,-0.733 1.683,-1.464 2.513,-2.192 0.149,-0.131 0.298,-0.262 0.447,-0.392 0.833,-0.733 1.657,-1.463 2.473,-2.19 0.099,-0.088 0.198,-0.176 0.296,-0.263 2.781,-2.483 5.463,-4.934 8.044,-7.352 0.113,-0.105 0.224,-0.21 0.337,-0.316 0.724,-0.68 1.44,-1.357 2.147,-2.031 0.16,-0.153 0.319,-0.304 0.478,-0.456 0.686,-0.656 1.363,-1.31 2.034,-1.961 0.132,-0.127 0.264,-0.256 0.395,-0.383 2.413,-2.35 4.725,-4.666 6.932,-6.948 0.118,-0.122 0.232,-0.242 0.349,-0.364 0.6,-0.621 1.192,-1.241 1.776,-1.858 0.16,-0.169 0.319,-0.339 0.479,-0.508 0.551,-0.585 1.094,-1.167 1.631,-1.748 0.149,-0.161 0.299,-0.323 0.447,-0.483 0.592,-0.644 1.175,-1.284 1.75,-1.922 0.073,-0.082 0.15,-0.165 0.223,-0.247 1.321,-1.471 2.594,-2.925 3.818,-4.363 0.109,-0.127 0.214,-0.253 0.321,-0.38 0.485,-0.572 0.962,-1.14 1.431,-1.707 0.151,-0.182 0.301,-0.365 0.45,-0.547 0.428,-0.52 0.849,-1.038 1.263,-1.554 0.147,-0.184 0.296,-0.368 0.441,-0.551 0.441,-0.553 0.872,-1.103 1.298,-1.651 0.1,-0.129 0.202,-0.258 0.302,-0.387 1.057,-1.371 2.066,-2.726 3.025,-4.064 0.095,-0.132 0.185,-0.262 0.279,-0.393 0.371,-0.523 0.737,-1.043 1.093,-1.559 0.129,-0.188 0.256,-0.375 0.384,-0.563 0.319,-0.467 0.631,-0.932 0.936,-1.395 0.127,-0.193 0.255,-0.385 0.38,-0.577 0.311,-0.478 0.613,-0.952 0.911,-1.425 0.101,-0.162 0.206,-0.324 0.305,-0.485 0.388,-0.623 0.765,-1.242 1.128,-1.857 0.002,-0.003 0.004,-0.006 0.006,-0.01 0.375,-0.634 0.735,-1.264 1.084,-1.889 0.073,-0.13 0.141,-0.259 0.213,-0.39 0.262,-0.476 0.519,-0.951 0.766,-1.423 0.099,-0.189 0.196,-0.377 0.292,-0.565 0.214,-0.416 0.423,-0.831 0.625,-1.242 0.096,-0.197 0.192,-0.393 0.285,-0.59 0.199,-0.415 0.391,-0.827 0.577,-1.239 0.08,-0.176 0.162,-0.354 0.24,-0.53 0.218,-0.492 0.425,-0.981 0.625,-1.467 0.035,-0.086 0.075,-0.174 0.109,-0.26 0.235,-0.578 0.455,-1.152 0.663,-1.721 0.044,-0.118 0.082,-0.235 0.124,-0.353 0.158,-0.441 0.309,-0.88 0.451,-1.316 0.06,-0.181 0.114,-0.361 0.17,-0.541 0.117,-0.373 0.228,-0.744 0.332,-1.113 0.055,-0.193 0.108,-0.386 0.16,-0.578 0.097,-0.362 0.188,-0.723 0.273,-1.081 0.043,-0.18 0.087,-0.361 0.127,-0.54 0.091,-0.404 0.172,-0.806 0.247,-1.205 0.024,-0.125 0.052,-0.252 0.074,-0.376 0.093,-0.524 0.173,-1.043 0.24,-1.556 0.012,-0.096 0.019,-0.189 0.03,-0.284 0.05,-0.414 0.093,-0.826 0.125,-1.234 0.014,-0.168 0.022,-0.335 0.032,-0.502 0.021,-0.334 0.038,-0.667 0.046,-0.998 0.009,-0.181 0.009,-0.36 0.009,-0.54 0,-0.319 0,-0.637 -0.0119,-0.952"
                   id="Fill-6"
                   fill="#cccccc" />
                <path
                   d="m 206.2023,216.2012 62.569,-16.847 17.461,-64.851 c -33.129,21.781 -60.037,49.839 -80.03,81.698"
                   id="Fill-8"
                   fill="#cccccc" />
                <g
                   id="Group-12"
                   transform="translate(139.9997)">
                  <mask
                     id="mask-4"
                     fill="#ffffff">
                    <use
                       xlink:href="#path-3"
                       id="use26"
                       x="0"
                       y="0"
                       width="100%"
                       height="100%" />
                  </mask>
                  <g
                     id="Clip-11" />
                  <path
                     id="Fill-10"
                     style="fill:#cccccc"
                     d="M 72.728,73.2859 120,60.5579 72.728,47.8299 60,0.5579 47.272,47.8299 0,60.5579 47.272,73.2859 60,120.5579 Z" />
                </g>
              </g>
            </g>
          </g>
        </g>
      </g>
    </g>
    <g
       id="textlines">
      <g
         id="einsg"
         transform="translate(-10,30)">
        <g
           aria-label="APP MUSIC"
           id="eins"
           style="text-rendering:geometricPrecision">
          <path
             d="m 75.56,-8.115 1.085,-0.665 8.19,-19.845 5.95,-0.525 7,18.9 q 0.35,0.91 0.49,1.19 0.14,0.28 0.525,0.77 L 99.43,-7.485 99.22,-5 h -9.835 l -0.35,-3.325 2.485,-0.63 -1.12,-3.535 -7.105,0.105 -0.77,2.205 q -0.105,0.315 -0.105,0.525 0,0.245 0.07,0.385 0.105,0.105 0.315,0.175 L 85.22,-8.08 84.87,-5 H 75.7 Z m 11.445,-15.05 -2.31,6.72 4.515,0.21 z"
             style="font-weight:400;font-size:35px;font-family:'Suez One';letter-spacing:7;fill:#cccccc"
             id="path60" />
          <path
             d="m 107.90438,-8.57 2.55499,-0.7 v -13.335 q 0,-0.91 -0.14,-1.19 -0.14,-0.315 -0.735,-0.56 l -1.81999,-1.015 0.20999,-2.835 q 2.66001,-0.42 5.04001,-0.595 2.37999,-0.21 5.11,-0.21 3.78,0 6.05499,0.805 2.31,0.805 3.36001,2.52 1.08499,1.715 1.08499,4.55 0,3.675 -2.65999,5.775 -2.625,2.1 -7.21001,2.1 l -1.92499,-0.07 v 2.66 q 0,0.84 0.105,1.085 0.14,0.245 0.62999,0.49 l 2.13501,1.26 -0.14,2.835 h -11.48 z m 11.16499,-8.575 q 1.89,0 2.765,-0.385 0.38501,-1.715 0.38501,-3.605 0,-2.065 -0.805,-2.94 -0.77001,-0.875 -2.52001,-0.875 -0.595,0 -2.06499,0.14 v 7.455 q 0.945,0.21 2.23999,0.21 z"
             style="font-weight:400;font-size:35px;font-family:'Suez One';letter-spacing:7;fill:#cccccc"
             id="path62" />
          <path
             d="m 137.18953,-8.57 2.555,-0.7 v -13.335 q 0,-0.91 -0.14,-1.19 -0.14,-0.315 -0.735,-0.56 l -1.82,-1.015 0.21,-2.835 q 2.66,-0.42 5.04,-0.595 2.38,-0.21 5.11,-0.21 3.78,0 6.055,0.805 2.31,0.805 3.36,2.52 1.085,1.715 1.085,4.55 0,3.675 -2.66,5.775 -2.625,2.1 -7.21,2.1 l -1.925,-0.07 v 2.66 q 0,0.84 0.105,1.085 0.14,0.245 0.63,0.49 l 2.135,1.26 -0.14,2.835 h -11.48 z m 11.165,-8.575 q 1.89,0 2.765,-0.385 0.385,-1.715 0.385,-3.605 0,-2.065 -0.805,-2.94 -0.77,-0.875 -2.52,-0.875 -0.595,0 -2.065,0.14 v 7.455 q 0.945,0.21 2.24,0.21 z"
             style="font-weight:400;font-size:35px;font-family:'Suez One';letter-spacing:7;fill:#cccccc"
             id="path64" />
          <path
             d="m 187.67922,-20.47 -0.77,10.36 v 0.14 q 0,0.665 0.49,0.875 l 2.17,0.91 -0.35,3.185 h -8.715 l -0.35,-3.115 1.61,-0.98 1.995,-13.51 q 0.035,-0.245 0.035,-0.595 0,-0.42 -0.21,-0.63 -0.175,-0.21 -0.7,-0.525 l -1.61,-0.91 0.21,-3.325 h 10.045 l 5.005,16.31 4.97,-16.31 h 9.38 l 0.14,3.675 -2.24,0.56 1.89,13.72 q 0.105,0.7 0.28,1.085 0.21,0.385 0.91,1.26 l 0.735,0.945 -0.21,2.345 h -10.43 l -0.315,-3.22 2.87,-0.735 -1.19,-11.725 -4.48,15.82 -5.985,0.525 z"
             style="font-weight:400;font-size:35px;font-family:'Suez One';letter-spacing:7;fill:#cccccc"
             id="path66" />
          <path
             d="m 231.70484,-4.545 q -5.145,0 -7.56,-2.695 -2.38,-2.73 -2.38,-8.54 v -6.895 q 0,-0.91 -0.14,-1.19 -0.105,-0.315 -0.665,-0.56 l -1.12,-0.665 0.105,-3.5 h 10.92 l 0.175,3.465 -2.905,0.805 v 7.175 q 0,3.64 1.05,5.74 1.05,2.1 3.605,2.1 0.84,0 1.61,-0.245 0.805,-0.245 1.365,-0.665 0.35,-0.805 0.49,-2.135 0.14,-1.365 0.14,-3.64 v -6.685 q 0,-0.91 -0.14,-1.19 -0.14,-0.315 -0.735,-0.56 l -1.715,-0.98 0.175,-3.185 h 10.395 l 0.175,3.78 -1.82,0.49 v 7.91 q 0,5.635 -2.905,8.75 -2.87,3.115 -8.12,3.115 z"
             style="font-weight:400;font-size:35px;font-family:'Suez One';letter-spacing:7;fill:#cccccc"
             id="path68" />
          <path
             d="m 260.65805,-4.58 q -3.85,0 -7.805,-1.19 0.175,-3.465 0.56,-6.44 l 2.695,-0.525 1.75,2.975 q 2.1,0.735 3.71,0.735 0.56,0 2.38,-0.315 0.07,-0.7 0.07,-0.945 0,-0.84 -0.28,-1.26 -0.28,-0.455 -1.225,-0.98 -0.945,-0.56 -3.395,-1.645 -3.01,-1.47 -4.34,-3.15 -1.33,-1.715 -1.33,-4.025 0,-3.605 2.45,-5.635 2.45,-2.03 6.72,-2.03 2.065,0 4.095,0.42 2.065,0.385 3.605,1.085 -0.07,1.96 -0.315,4.865 l -0.105,1.505 -2.555,0.385 -2.66,-3.395 q -1.26,-0.385 -3.15,-0.385 -1.19,0 -1.785,0.21 -0.175,0.7 -0.175,1.085 0,0.77 0.385,1.365 0.385,0.56 1.365,1.19 0.98,0.595 2.905,1.505 2.8,1.33 4.235,2.345 1.435,1.015 1.995,2.135 0.595,1.085 0.595,2.66 0,3.465 -2.765,5.46 -2.765,1.995 -7.63,1.995 z"
             style="font-weight:400;font-size:35px;font-family:'Suez One';letter-spacing:7;fill:#cccccc"
             id="path70" />
          <path
             d="m 279.95398,-8.57 2.555,-0.7 v -13.405 q 0,-0.91 -0.14,-1.19 -0.14,-0.315 -0.735,-0.56 l -1.82,-1.05 0.175,-3.115 h 11.235 l 0.14,3.57 -2.52,0.7 v 13.65 q 0,0.84 0.105,1.085 0.14,0.245 0.665,0.49 l 1.785,1.085 -0.105,3.01 h -11.165 z"
             style="font-weight:400;font-size:35px;font-family:'Suez One';letter-spacing:7;fill:#cccccc"
             id="path72" />
          <path
             d="m 311.16742,-4.475 q -5.32,0 -8.19,-3.255 -2.87,-3.255 -2.87,-9.205 0,-3.78 1.365,-6.51 1.4,-2.765 4.025,-4.2 2.625,-1.47 6.23,-1.47 4.095,0 8.435,1.855 -0.315,3.15 -1.015,6.965 l -2.66,0.175 -2.415,-3.535 q -1.54,-0.455 -3.395,-0.455 -1.4,0 -2.66,0.245 -0.56,1.085 -0.91,2.87 -0.35,1.785 -0.35,3.605 0,3.885 1.4,5.775 1.435,1.855 4.515,1.925 1.225,0 3.08,-0.35 1.89,-0.385 3.675,-0.98 l 1.085,3.85 q -1.82,1.19 -4.41,1.96 -2.555,0.735 -4.935,0.735 z"
             style="font-weight:400;font-size:35px;font-family:'Suez One';letter-spacing:7;fill:#cccccc"
             id="path74" />
        </g>
      </g>
      <g
         id="zweig"
         transform="translate(-10,5)">
        <g
           id="zwei"
           style="dominant-baseline:text-before-edge;text-rendering:geometricPrecision" />
      </g>
    </g>
  </g>
</svg>
